<svg width="140" height="140" viewBox="0 0 140 140" fill="none" xmlns="http://www.w3.org/2000/svg">
<rect width="140" height="140" fill="#09272B"/>
<path d="M77.6845 38H70C69.9096 38 69.8193 38.0004 69.729 38.0011C69.4809 40.5637 68.9038 43.1004 67.9977 45.5427C68.7386 46.2687 69.1984 47.2806 69.1984 48.3999C69.1984 48.6919 69.1671 48.9766 69.1076 49.2508C70.3638 50.1875 71.6759 51.0147 73.0308 51.7322C73.3837 51.4366 73.7883 51.2008 74.2291 51.0403C74.8827 46.505 76.0552 42.1376 77.6845 38Z" fill="#A9C800"/>
<path d="M60.5577 39.4159C62.4655 38.8276 64.4494 38.4129 66.491 38.1902C66.2467 40.3012 65.7518 42.3887 65.0061 44.4044C64.692 44.4193 64.3873 44.4704 64.0963 44.5536C62.7209 42.9404 61.5414 41.2174 60.5577 39.4159Z" fill="#A9C800"/>
<path d="M44.3448 50.8705C47.7195 46.352 52.2599 42.7549 57.5203 40.5248C58.6447 42.6567 60.0143 44.6931 61.6291 46.5923C61.3536 47.1352 61.1984 47.7494 61.1984 48.3999C61.1984 49.1723 61.4173 49.8936 61.7965 50.5051C60.9236 51.743 59.9333 52.9234 58.8258 54.0309C57.422 55.4348 55.901 56.6502 54.2944 57.6771C53.7301 57.3727 53.0842 57.1999 52.398 57.1999C51.8779 57.1999 51.381 57.2991 50.9252 57.4798C49.9853 56.2311 48.9469 55.033 47.81 53.8961C46.7091 52.7952 45.5509 51.7867 44.3448 50.8705Z" fill="#A9C800"/>
<path d="M39.0442 61.8612C39.822 58.8949 41.0149 56.0966 42.557 53.5322C43.5961 54.3314 44.5954 55.2069 45.5473 56.1588C46.6933 57.3049 47.7288 58.5197 48.6536 59.79C48.5712 60.0085 48.5075 60.2361 48.4643 60.4709C45.4181 61.4976 42.224 61.9611 39.0442 61.8612Z" fill="#A9C800"/>
<path d="M38 80.856V70C38 68.3119 38.1307 66.6543 38.3826 65.0368C42.0258 65.2191 45.6959 64.74 49.1976 63.5997C49.8081 64.4126 50.7212 64.9854 51.7696 65.1508C53.8555 69.7769 54.7245 74.8178 54.3766 79.7896C53.6458 80.0236 53.0064 80.4621 52.5258 81.0377C47.7481 79.9905 42.7977 79.93 38 80.856Z" fill="#A9C800"/>
<path d="M42.2642 102H38V84.1215C42.4894 83.1659 47.1413 83.165 51.631 84.1187C51.7659 85.1605 52.3017 86.0766 53.0786 86.7072C51.6631 91.2599 49.1526 95.5456 45.5473 99.1509C44.5063 100.192 43.4086 101.142 42.2642 102Z" fill="#A9C800"/>
<path d="M61.6464 102H47.2091C47.4112 101.808 47.6116 101.612 47.81 101.414C51.8213 97.4024 54.6063 92.6292 56.1651 87.5599C57.0634 87.4323 57.8655 87.0064 58.4681 86.3856C59.9654 87.0747 61.4212 87.8833 62.8212 88.8113C62.8088 88.9392 62.8025 89.0688 62.8025 89.1999C62.8025 90.2298 63.1918 91.1689 63.8312 91.8779C62.5977 95.1449 61.8694 98.5591 61.6464 102Z" fill="#A9C800"/>
<path d="M74.1558 101.733C72.7955 101.909 71.4084 102 70 102H64.8538C65.0672 99.0102 65.7007 96.0447 66.7542 93.1996L66.8025 93.1999C67.205 93.1999 67.5936 93.1404 67.9601 93.0298C70.5598 95.6453 72.6251 98.5915 74.1558 101.733Z" fill="#A9C800"/>
<path d="M87.192 96.9943C84.229 98.8853 80.934 100.302 77.4138 101.137C75.7326 97.4554 73.3951 94.0002 70.4014 90.9479C70.6584 90.4198 70.8025 89.8267 70.8025 89.1999C70.8025 88.2956 70.5025 87.4614 69.9965 86.7915C71.1679 85.0121 72.5363 83.3243 74.1016 81.7589C74.7477 81.1129 75.4146 80.5004 76.1002 79.9215C76.513 80.1445 76.9695 80.2971 77.4535 80.363C79.7772 86.4594 83.0885 92.0684 87.192 96.9943Z" fill="#A9C800"/>
<path d="M93.3346 91.8976C92.2418 93.0616 91.0629 94.1439 89.808 95.1342C85.9153 90.5024 82.7663 85.2246 80.5451 79.4848C81.4329 78.7511 81.9987 77.6416 81.9987 76.3999C81.9987 76.2606 81.9916 76.123 81.9777 75.9874C83.5342 75.1812 85.1432 74.512 86.787 73.9798C87.2328 74.5811 87.8432 75.053 88.5517 75.3287C89.3143 81.0076 90.9086 86.5962 93.3346 91.8976Z" fill="#A9C800"/>
<path d="M101.874 72.8629C101.334 78.9464 99.0926 84.5405 95.628 89.1658C93.7179 84.6655 92.4296 79.964 91.7631 75.1924C92.815 74.6758 93.6069 73.7108 93.8894 72.5467C96.5503 72.3188 99.2343 72.4242 101.874 72.8629Z" fill="#A9C800"/>
<path d="M102 55.0557V69.6421C99.1315 69.1993 96.2185 69.1132 93.3327 69.3838C92.8364 68.6393 92.0971 68.0707 91.2281 67.7912C91.2141 65.2887 91.3685 62.7855 91.6912 60.3C93.0639 59.9873 94.168 58.9685 94.6012 57.6458C97.1389 57.0796 99.6237 56.2162 102 55.0557Z" fill="#A9C800"/>
<path d="M99.6985 38H102V51.4471C99.5496 52.8076 96.9512 53.8035 94.2839 54.4349C93.992 53.9182 93.5885 53.473 93.1061 53.1318C94.5132 47.8583 96.7107 42.7518 99.6985 38Z" fill="#A9C800"/>
<path d="M81.1402 38H95.9578C93.2849 42.5917 91.2876 47.4687 89.966 52.4867C88.5315 52.7906 87.3808 53.8634 86.9657 55.2535C84.4757 55.2301 81.988 54.9027 79.563 54.2713C79.3886 52.9509 78.5702 51.8336 77.4337 51.2454C78.1224 46.619 79.3826 42.1792 81.1402 38Z" fill="#A9C800"/>
<path d="M71.6027 54.5978C70.0933 53.8029 68.6316 52.8853 67.2325 51.8448C66.6365 52.1974 65.9411 52.3999 65.1984 52.3999C64.9351 52.3999 64.6778 52.3744 64.4288 52.3259C63.448 53.7192 62.3346 55.0476 61.0886 56.2937C59.5924 57.7898 57.9775 59.0947 56.2742 60.2085C56.355 60.5255 56.398 60.8577 56.398 61.1999C56.398 62.4615 55.8139 63.5867 54.9015 64.3198C57.0655 69.3302 57.9522 74.7602 57.5616 80.1144C58.7171 80.7669 59.5157 81.9773 59.5917 83.38C61.2405 84.1256 62.8445 85.0025 64.3877 86.0108C65.0588 85.5019 65.8954 85.1999 66.8025 85.1999C66.9368 85.1999 67.0695 85.2065 67.2003 85.2194C68.5159 83.1932 70.0621 81.273 71.8389 79.4962C72.5771 78.758 73.34 78.0596 74.125 77.401C74.0426 77.0811 73.9987 76.7456 73.9987 76.3999C73.9987 75.2307 74.5003 74.1788 75.3 73.4474C74.2063 68.9709 73.6265 64.2929 73.6265 59.4795C73.6265 59.0815 73.6304 58.6843 73.6383 58.2881C72.4203 57.6025 71.5977 56.2973 71.5977 54.8C71.5977 54.7322 71.5994 54.6648 71.6027 54.5978Z" fill="#A9C800"/>
<path d="M86.0727 70.8481C84.1309 71.4591 82.2319 72.2432 80.3996 73.2003C79.8171 72.7625 79.1111 72.48 78.3432 72.4145C77.3516 68.2645 76.8265 63.9333 76.8265 59.4795C76.8265 59.1877 76.8287 58.8964 76.8332 58.6056C77.5637 58.3686 78.202 57.9271 78.6807 57.3487C81.5237 58.0958 84.4456 58.4645 87.3665 58.4547C87.664 58.9506 88.066 59.3768 88.542 59.7027C88.1707 62.4942 88.0002 65.3073 88.0307 68.1186C87.0279 68.6877 86.2953 69.6776 86.0727 70.8481Z" fill="#A9C800"/>
</svg>
