<svg width="278" height="64" viewBox="0 0 278 64" fill="none" xmlns="http://www.w3.org/2000/svg">
<path d="M39.6845 0H32C31.9096 0 31.8193 0.000374922 31.729 0.0011233C31.4809 2.56366 30.9038 5.10036 29.9977 7.54268C30.7386 8.26869 31.1984 9.28059 31.1984 10.3999C31.1984 10.6919 31.1671 10.9766 31.1076 11.2508C32.3638 12.1875 33.6759 13.0147 35.0308 13.7322C35.3837 13.4366 35.7883 13.2008 36.2291 13.0403C36.8827 8.50504 38.0552 4.13758 39.6845 0Z" fill="#A9C800"/>
<path d="M22.5577 1.41589C24.4655 0.827581 26.4494 0.412869 28.491 0.190196C28.2467 2.30118 27.7518 4.38866 27.0061 6.40441C26.692 6.41927 26.3873 6.47037 26.0963 6.55361C24.7209 4.94038 23.5414 3.21739 22.5577 1.41589Z" fill="#A9C800"/>
<path d="M6.34484 12.8705C9.71951 8.35197 14.2599 4.75486 19.5203 2.52484C20.6447 4.65671 22.0143 6.69307 23.6291 8.5923C23.3536 9.1352 23.1984 9.7494 23.1984 10.3999C23.1984 11.1723 23.4173 11.8936 23.7965 12.5051C22.9236 13.743 21.9333 14.9234 20.8258 16.0309C19.422 17.4348 17.901 18.6502 16.2944 19.6771C15.7301 19.3727 15.0842 19.1999 14.398 19.1999C13.8779 19.1999 13.381 19.2991 12.9252 19.4798C11.9853 18.2311 10.9469 17.033 9.81001 15.8961C8.70913 14.7952 7.55086 13.7867 6.34484 12.8705Z" fill="#A9C800"/>
<path d="M1.04419 23.8612C1.82198 20.8949 3.01485 18.0966 4.55699 15.5322C5.5961 16.3314 6.59539 17.2069 7.54726 18.1588C8.69333 19.3049 9.72876 20.5197 10.6536 21.79C10.5712 22.0085 10.5075 22.2361 10.4643 22.4709C7.41814 23.4976 4.22397 23.9611 1.04419 23.8612Z" fill="#A9C800"/>
<path d="M0 42.856V32C0 30.3119 0.130719 28.6543 0.382582 27.0368C4.02577 27.2191 7.69588 26.74 11.1976 25.5997C11.8081 26.4126 12.7212 26.9854 13.7696 27.1508C15.8555 31.7769 16.7245 36.8178 16.3766 41.7896C15.6458 42.0236 15.0064 42.4621 14.5258 43.0377C9.74811 41.9905 4.79765 41.93 0 42.856Z" fill="#A9C800"/>
<path d="M4.26415 64H0V46.1215C4.48939 45.1659 9.1413 45.165 13.631 46.1187C13.7659 47.1605 14.3017 48.0766 15.0786 48.7072C13.6631 53.2599 11.1526 57.5456 7.54726 61.1509C6.50629 62.1919 5.40861 63.1416 4.26415 64Z" fill="#A9C800"/>
<path d="M23.6464 64H9.20911C9.41124 63.8076 9.61155 63.6121 9.81001 63.4137C13.8213 59.4024 16.6063 54.6292 18.1651 49.5599C19.0634 49.4323 19.8655 49.0064 20.4681 48.3856C21.9654 49.0747 23.4212 49.8833 24.8212 50.8113C24.8088 50.9392 24.8025 51.0688 24.8025 51.1999C24.8025 52.2298 25.1918 53.1689 25.8312 53.8779C24.5977 57.1449 23.8694 60.5591 23.6464 64Z" fill="#A9C800"/>
<path d="M36.1558 63.7326C34.7955 63.909 33.4084 64 32 64H26.8538C27.0672 61.0102 27.7007 58.0447 28.7542 55.1996L28.8025 55.1999C29.205 55.1999 29.5936 55.1404 29.9601 55.0298C32.5598 57.6453 34.6251 60.5915 36.1558 63.7326Z" fill="#A9C800"/>
<path d="M49.192 58.9943C46.229 60.8853 42.934 62.3018 39.4138 63.1368C37.7326 59.4554 35.3951 56.0002 32.4014 52.9479C32.6584 52.4198 32.8025 51.8267 32.8025 51.1999C32.8025 50.2956 32.5025 49.4614 31.9965 48.7915C33.1679 47.0121 34.5363 45.3243 36.1016 43.7589C36.7477 43.1129 37.4146 42.5004 38.1002 41.9215C38.513 42.1445 38.9695 42.2971 39.4535 42.363C41.7772 48.4594 45.0885 54.0684 49.192 58.9943Z" fill="#A9C800"/>
<path d="M55.3346 53.8976C54.2418 55.0616 53.0629 56.1439 51.808 57.1342C47.9153 52.5024 44.7663 47.2246 42.5451 41.4848C43.4329 40.7511 43.9987 39.6416 43.9987 38.3999C43.9987 38.2606 43.9916 38.123 43.9777 37.9874C45.5342 37.1812 47.1432 36.512 48.787 35.9798C49.2328 36.5811 49.8432 37.053 50.5517 37.3287C51.3143 43.0076 52.9086 48.5962 55.3346 53.8976Z" fill="#A9C800"/>
<path d="M63.8737 34.8629C63.3343 40.9464 61.0926 46.5405 57.628 51.1658C55.7179 46.6655 54.4296 41.964 53.7631 37.1924C54.815 36.6758 55.6069 35.7108 55.8894 34.5467C58.5503 34.3188 61.2343 34.4242 63.8737 34.8629Z" fill="#A9C800"/>
<path d="M64 17.0557V31.6421C61.1315 31.1993 58.2185 31.1132 55.3327 31.3838C54.8364 30.6393 54.0971 30.0707 53.2281 29.7912C53.2141 27.2887 53.3685 24.7855 53.6912 22.3C55.0639 21.9873 56.168 20.9685 56.6012 19.6458C59.1389 19.0796 61.6237 18.2162 64 17.0557Z" fill="#A9C800"/>
<path d="M61.6985 0H64V13.4471C61.5496 14.8076 58.9512 15.8035 56.2839 16.4349C55.992 15.9182 55.5885 15.473 55.1061 15.1318C56.5132 9.85829 58.7107 4.75182 61.6985 0Z" fill="#A9C800"/>
<path d="M43.1402 0H57.9578C55.2849 4.59174 53.2876 9.46872 51.966 14.4867C50.5315 14.7906 49.3808 15.8634 48.9657 17.2535C46.4757 17.2301 43.988 16.9027 41.563 16.2713C41.3886 14.9509 40.5702 13.8336 39.4337 13.2454C40.1224 8.61898 41.3826 4.17916 43.1402 0Z" fill="#A9C800"/>
<path d="M33.6027 16.5978C32.0933 15.8029 30.6316 14.8853 29.2325 13.8448C28.6365 14.1974 27.9411 14.3999 27.1984 14.3999C26.9351 14.3999 26.6778 14.3744 26.4288 14.3259C25.448 15.7192 24.3346 17.0476 23.0886 18.2937C21.5924 19.7898 19.9775 21.0947 18.2742 22.2085C18.355 22.5255 18.398 22.8577 18.398 23.1999C18.398 24.4615 17.8139 25.5867 16.9015 26.3198C19.0655 31.3302 19.9522 36.7602 19.5616 42.1144C20.7171 42.7669 21.5157 43.9773 21.5917 45.38C23.2405 46.1256 24.8445 47.0025 26.3877 48.0108C27.0588 47.5019 27.8954 47.1999 28.8025 47.1999C28.9368 47.1999 29.0695 47.2065 29.2003 47.2194C30.5159 45.1932 32.0621 43.273 33.8389 41.4962C34.5771 40.758 35.34 40.0596 36.125 39.401C36.0426 39.0811 35.9987 38.7456 35.9987 38.3999C35.9987 37.2307 36.5003 36.1788 37.3 35.4474C36.2063 30.9709 35.6265 26.2929 35.6265 21.4795C35.6265 21.0815 35.6304 20.6843 35.6383 20.2881C34.4203 19.6025 33.5977 18.2973 33.5977 16.8C33.5977 16.7322 33.5994 16.6648 33.6027 16.5978Z" fill="#A9C800"/>
<path d="M48.0727 32.8481C46.1309 33.4591 44.2319 34.2432 42.3996 35.2003C41.8171 34.7625 41.1111 34.48 40.3432 34.4145C39.3516 30.2645 38.8265 25.9333 38.8265 21.4795C38.8265 21.1877 38.8287 20.8964 38.8332 20.6056C39.5637 20.3686 40.202 19.9271 40.6807 19.3487C43.5237 20.0958 46.4456 20.4645 49.3665 20.4547C49.664 20.9506 50.066 21.3768 50.542 21.7027C50.1707 24.4942 50.0002 27.3073 50.0307 30.1186C49.0279 30.6877 48.2953 31.6776 48.0727 32.8481Z" fill="#A9C800"/>
<path d="M72.709 0H82.0526V40.3737H72.709V0Z" fill="#09272B"/>
<path d="M115.051 40.3737L107.265 29.1267H98.6707V40.3737H89.3271V0H106.803C110.379 0 113.474 0.595993 116.089 1.78798C118.742 2.97996 120.78 4.67181 122.203 6.86353C123.625 9.05524 124.337 11.6507 124.337 14.6499C124.337 17.6491 123.606 20.2445 122.145 22.4362C120.722 24.5895 118.684 26.2429 116.031 27.3964L125.087 40.3737H115.051ZM114.878 14.6499C114.878 12.3813 114.147 10.651 112.686 9.45898C111.225 8.22854 109.091 7.61332 106.284 7.61332H98.6707V21.6864H106.284C109.091 21.6864 111.225 21.0712 112.686 19.8408C114.147 18.6103 114.878 16.88 114.878 14.6499Z" fill="#09272B"/>
<path d="M129.433 0H138.776V40.3737H129.433V0Z" fill="#09272B"/>
<path d="M175.697 19.3794C178.004 20.1099 179.811 21.3404 181.118 23.0707C182.425 24.7625 183.079 26.8581 183.079 29.3574C183.079 32.8949 181.695 35.625 178.926 37.5475C176.196 39.4316 172.197 40.3737 166.93 40.3737H146.051V0H165.776C170.698 0 174.466 0.942053 177.081 2.82616C179.734 4.71026 181.06 7.26726 181.06 10.4972C181.06 12.4582 180.58 14.2077 179.619 15.7457C178.696 17.2838 177.388 18.495 175.697 19.3794ZM155.337 7.03656V16.5532H164.623C166.93 16.5532 168.679 16.1495 169.871 15.342C171.063 14.5345 171.659 13.3425 171.659 11.766C171.659 10.1895 171.063 9.01679 169.871 8.24776C168.679 7.44029 166.93 7.03656 164.623 7.03656H155.337ZM166.238 33.3371C168.698 33.3371 170.544 32.9334 171.775 32.1259C173.043 31.3184 173.678 30.0688 173.678 28.3769C173.678 25.0317 171.198 23.3591 166.238 23.3591H155.337V33.3371H166.238Z" fill="#09272B"/>
<path d="M224.874 0V40.3737H215.531V23.8205H197.19V40.3737H187.846V0H197.19V15.9188H215.531V0H224.874Z" fill="#09272B"/>
<path d="M268.86 40.3737L268.802 16.1495L256.921 36.1056H252.71L240.886 16.6686V40.3737H232.12V0H239.848L254.96 25.0894L269.84 0H277.511L277.627 40.3737H268.86Z" fill="#09272B"/>
<path d="M76.8379 61.0941C75.9807 61.0941 75.1899 60.9354 74.4656 60.618C73.7533 60.2883 73.1677 59.8244 72.709 59.2261L74.3388 57.2482C75.027 58.1883 75.8117 58.6584 76.693 58.6584C77.8882 58.6584 78.4858 57.9502 78.4858 56.5339V50.4353H74.0309V48.0545H81.4014V56.3691C81.4014 57.9441 81.015 59.1284 80.2424 59.922C79.4697 60.7034 78.3349 61.0941 76.8379 61.0941Z" fill="#09272B"/>
<path d="M92.3821 58.1273H86.4967L85.3739 60.8744H82.3678L88.0178 48.0545H90.9153L96.5834 60.8744H93.5049L92.3821 58.1273ZM91.4586 55.8746L89.4485 50.9664L87.4383 55.8746H91.4586Z" fill="#09272B"/>
<path d="M103.788 61.0941C102.497 61.0941 101.325 60.8133 100.275 60.2517C99.2369 59.6778 98.416 58.8903 97.8123 57.8892C97.2208 56.8758 96.925 55.7342 96.925 54.4644C96.925 53.1946 97.2208 52.0592 97.8123 51.058C98.416 50.0446 99.2369 49.2571 100.275 48.6955C101.325 48.1216 102.503 47.8347 103.806 47.8347C104.905 47.8347 105.895 48.0301 106.776 48.4208C107.67 48.8115 108.418 49.3731 109.022 50.1057L107.139 51.8638C106.281 50.8627 105.219 50.3621 103.951 50.3621C103.167 50.3621 102.466 50.5391 101.851 50.8932C101.235 51.235 100.752 51.7173 100.402 52.34C100.064 52.9627 99.8949 53.6708 99.8949 54.4644C99.8949 55.258 100.064 55.9662 100.402 56.5889C100.752 57.2115 101.235 57.6999 101.851 58.054C102.466 58.3959 103.167 58.5668 103.951 58.5668C105.219 58.5668 106.281 58.0601 107.139 57.0467L109.022 58.8049C108.418 59.5496 107.67 60.1174 106.776 60.5081C105.883 60.8988 104.887 61.0941 103.788 61.0941Z" fill="#09272B"/>
<path d="M124.446 62.2479C124.036 62.7607 123.535 63.1514 122.943 63.42C122.364 63.6886 121.724 63.8229 121.024 63.8229C120.082 63.8229 119.231 63.6154 118.47 63.2003C117.71 62.7974 116.84 62.077 115.863 61.0392C114.716 60.8927 113.689 60.5203 112.784 59.922C111.891 59.3238 111.19 58.5546 110.683 57.6145C110.188 56.6621 109.941 55.6121 109.941 54.4644C109.941 53.2069 110.237 52.0775 110.828 51.0763C111.432 50.0629 112.259 49.2693 113.309 48.6955C114.372 48.1216 115.561 47.8347 116.877 47.8347C118.193 47.8347 119.376 48.1216 120.426 48.6955C121.476 49.2693 122.303 50.0629 122.907 51.0763C123.511 52.0775 123.812 53.2069 123.812 54.4644C123.812 55.954 123.396 57.2604 122.563 58.3836C121.742 59.5069 120.649 60.2883 119.285 60.7279C119.587 61.0453 119.877 61.2712 120.154 61.4055C120.444 61.552 120.752 61.6252 121.078 61.6252C121.863 61.6252 122.551 61.3078 123.142 60.6729L124.446 62.2479ZM112.911 54.4644C112.911 55.258 113.08 55.9662 113.418 56.5889C113.768 57.2115 114.245 57.6999 114.848 58.054C115.452 58.3959 116.128 58.5668 116.877 58.5668C117.625 58.5668 118.301 58.3959 118.905 58.054C119.509 57.6999 119.979 57.2115 120.317 56.5889C120.668 55.9662 120.843 55.258 120.843 54.4644C120.843 53.6708 120.668 52.9627 120.317 52.34C119.979 51.7173 119.509 51.235 118.905 50.8932C118.301 50.5391 117.625 50.3621 116.877 50.3621C116.128 50.3621 115.452 50.5391 114.848 50.8932C114.245 51.235 113.768 51.7173 113.418 52.34C113.08 52.9627 112.911 53.6708 112.911 54.4644Z" fill="#09272B"/>
<path d="M131.649 61.0941C129.838 61.0941 128.426 60.5874 127.412 59.5741C126.41 58.5607 125.909 57.1139 125.909 55.2336V48.0545H128.842V55.1237C128.842 57.4191 129.784 58.5668 131.667 58.5668C132.585 58.5668 133.285 58.2921 133.768 57.7427C134.251 57.181 134.492 56.308 134.492 55.1237V48.0545H137.39V55.2336C137.39 57.1139 136.883 58.5607 135.869 59.5741C134.867 60.5874 133.46 61.0941 131.649 61.0941Z" fill="#09272B"/>
<path d="M150.104 58.4935V60.8744H140.289V48.0545H149.869V50.4353H143.204V53.2191H149.09V55.5266H143.204V58.4935H150.104Z" fill="#09272B"/>
<path d="M156.603 61.0941C155.601 61.0941 154.629 60.9598 153.688 60.6912C152.758 60.4104 152.01 60.0502 151.442 59.6107L152.438 57.3764C152.981 57.7793 153.627 58.1028 154.376 58.347C155.124 58.5912 155.873 58.7133 156.621 58.7133C157.454 58.7133 158.07 58.5912 158.469 58.347C158.867 58.0906 159.066 57.7549 159.066 57.3397C159.066 57.0345 158.945 56.7842 158.704 56.5889C158.475 56.3813 158.173 56.2165 157.798 56.0944C157.436 55.9723 156.941 55.838 156.314 55.6915C155.348 55.4595 154.557 55.2275 153.941 54.9955C153.326 54.7636 152.794 54.3912 152.348 53.8784C151.913 53.3656 151.696 52.6819 151.696 51.8272C151.696 51.0824 151.895 50.4109 152.293 49.8126C152.692 49.2022 153.289 48.7199 154.086 48.3658C154.895 48.0118 155.879 47.8347 157.038 47.8347C157.847 47.8347 158.638 47.9324 159.41 48.1277C160.183 48.3231 160.859 48.6039 161.438 48.9702L160.533 51.2228C159.362 50.5513 158.191 50.2156 157.02 50.2156C156.199 50.2156 155.589 50.3499 155.191 50.6185C154.804 50.8871 154.611 51.2411 154.611 51.6807C154.611 52.1202 154.835 52.4499 155.281 52.6696C155.74 52.8772 156.434 53.0848 157.364 53.2923C158.33 53.5243 159.12 53.7563 159.736 53.9883C160.352 54.2202 160.877 54.5865 161.312 55.0871C161.758 55.5877 161.982 56.2653 161.982 57.12C161.982 57.8525 161.776 58.5241 161.366 59.1345C160.968 59.7328 160.364 60.209 159.555 60.563C158.746 60.9171 157.762 61.0941 156.603 61.0941Z" fill="#09272B"/>
<path d="M178.93 58.4935V60.8744H169.115V48.0545H178.695V50.4353H172.03V53.2191H177.916V55.5266H172.03V58.4935H178.93Z" fill="#09272B"/>
<path d="M182.31 61.0209C181.815 61.0209 181.399 60.85 181.061 60.5081C180.723 60.1662 180.554 59.7389 180.554 59.2261C180.554 58.7011 180.723 58.2799 181.061 57.9624C181.399 57.6328 181.815 57.4679 182.31 57.4679C182.805 57.4679 183.222 57.6328 183.56 57.9624C183.898 58.2799 184.067 58.7011 184.067 59.2261C184.067 59.7389 183.898 60.1662 183.56 60.5081C183.222 60.85 182.805 61.0209 182.31 61.0209Z" fill="#09272B"/>
<path d="M191.309 48.0545H197.068C198.444 48.0545 199.657 48.3231 200.708 48.8603C201.77 49.3853 202.591 50.1301 203.171 51.0946C203.762 52.0592 204.058 53.1824 204.058 54.4644C204.058 55.7464 203.762 56.8697 203.171 57.8342C202.591 58.7988 201.77 59.5496 200.708 60.0869C199.657 60.6119 198.444 60.8744 197.068 60.8744H191.309V48.0545ZM196.923 58.4386C198.191 58.4386 199.199 58.0845 199.947 57.3764C200.708 56.656 201.088 55.6854 201.088 54.4644C201.088 53.2435 200.708 52.2789 199.947 51.5708C199.199 50.8504 198.191 50.4903 196.923 50.4903H194.243V58.4386H196.923Z" fill="#09272B"/>
<path d="M211.902 61.0941C210.091 61.0941 208.679 60.5874 207.665 59.5741C206.663 58.5607 206.162 57.1139 206.162 55.2336V48.0545H209.095V55.1237C209.095 57.4191 210.037 58.5668 211.92 58.5668C212.838 58.5668 213.538 58.2921 214.021 57.7427C214.504 57.181 214.745 56.308 214.745 55.1237V48.0545H217.643V55.2336C217.643 57.1139 217.136 58.5607 216.122 59.5741C215.12 60.5874 213.713 61.0941 211.902 61.0941Z" fill="#09272B"/>
<path d="M232.077 60.8744L232.059 53.1824L228.329 59.5191H227.007L223.294 53.3473V60.8744H220.542V48.0545H222.969L227.713 56.0211L232.385 48.0545H234.794L234.83 60.8744H232.077Z" fill="#09272B"/>
<path d="M243.977 61.0941C242.661 61.0941 241.471 60.8072 240.409 60.2334C239.359 59.6595 238.532 58.872 237.928 57.8709C237.336 56.8575 237.041 55.722 237.041 54.4644C237.041 53.2069 237.336 52.0775 237.928 51.0763C238.532 50.0629 239.359 49.2693 240.409 48.6955C241.471 48.1216 242.661 47.8347 243.977 47.8347C245.292 47.8347 246.476 48.1216 247.526 48.6955C248.576 49.2693 249.403 50.0629 250.007 51.0763C250.61 52.0775 250.912 53.2069 250.912 54.4644C250.912 55.722 250.61 56.8575 250.007 57.8709C249.403 58.872 248.576 59.6595 247.526 60.2334C246.476 60.8072 245.292 61.0941 243.977 61.0941ZM243.977 58.5668C244.725 58.5668 245.401 58.3959 246.005 58.054C246.608 57.6999 247.079 57.2115 247.417 56.5889C247.767 55.9662 247.942 55.258 247.942 54.4644C247.942 53.6708 247.767 52.9627 247.417 52.34C247.079 51.7173 246.608 51.235 246.005 50.8932C245.401 50.5391 244.725 50.3621 243.977 50.3621C243.228 50.3621 242.552 50.5391 241.948 50.8932C241.345 51.235 240.868 51.7173 240.518 52.34C240.18 52.9627 240.011 53.6708 240.011 54.4644C240.011 55.258 240.18 55.9662 240.518 56.5889C240.868 57.2115 241.345 57.6999 241.948 58.054C242.552 58.3959 243.228 58.5668 243.977 58.5668Z" fill="#09272B"/>
<path d="M264.743 48.0545V60.8744H262.335L256.015 53.0909V60.8744H253.117V48.0545H255.544L261.846 55.838V48.0545H264.743Z" fill="#09272B"/>
<path d="M270.368 50.4719H266.312V48.0545H277.358V50.4719H273.302V60.8744H270.368V50.4719Z" fill="#09272B"/>
</svg>
